<?xml version="1.0" encoding="UTF-8"?>
<svg id="_图层_2" xmlns="http://www.w3.org/2000/svg" version="1.1" viewBox="0 0 91.1 128">
  <!-- Generator: Adobe Illustrator 29.4.0, SVG Export Plug-In . SVG Version: 2.1.0 Build 152)  -->
  <defs>
    <style>
      .st0 {
        fill: #fff;
      }
    </style>
  </defs>
  <g id="_路程">
    <g>
      <path class="st0" d="M8.4,7.5h5.2v30.8h.2l13.2-16.4h5.9l-10.4,12.6,11.7,18.6h-5.8l-9.1-15-5.8,6.7v8.2h-5.2s0-45.6,0-45.6Z"/>
      <path class="st0" d="M40.1,22h4.3l.4,4.5h.2c2.7-2.9,6-5.3,9.7-5.3s7.3,2.3,8.6,5.9c3.2-3.5,6.5-5.9,10.3-5.9,6.4,0,9.5,4.2,9.5,12.2v19.7h-5.3v-19c0-5.8-1.8-8.3-5.8-8.3s-4.9,1.6-7.8,4.8v22.5h-5.3v-19c0-5.8-1.8-8.3-5.8-8.3s-4.9,1.6-7.8,4.8v97.4h-5.3V22h0Z"/>
    </g>
  </g>
</svg>