<?xml version="1.0" encoding="UTF-8"?>
<svg id="_图层_3" data-name="图层 3" xmlns="http://www.w3.org/2000/svg" viewBox="0 0 90.6 120.47">
  <defs>
    <style>
      .cls-1 {
        fill: #fff;
      }
    </style>
  </defs>
  <path class="cls-1" d="M.46,43.17h5.73V4.37L0,3.76V1.75l7.91-.98h1.43v30.2h.69l6.31-7.26,6.19-6.22-5.45-.31v-2.26h14.28v2.26l-5.56.31-8.77,8.42,10.26,17.14,5.28.24v2.32h-7.63l-10.15-17.57-5.45,5.25v9.88h5.68v2.44H.46v-2.44Z"/>
  <path class="cls-1" d="M36.93,118.03h5.68V18.52h-5.91v-2.07l6.88-1.53h1.43l.46,5.61h1.15c2.7-3.72,5.62-6.34,10.15-6.34,4.24,0,7.23,2.26,8.2,6.34h1.2c2.7-3.72,5.62-6.34,10.15-6.34,5.39,0,8.6,3.54,8.6,9.76v19.22h5.68v2.44h-14.45v-2.44h5.56v-18.36c0-5.25-2.12-7.63-6.19-7.63-3.61,0-6.54,2.01-10.21,5.25.06.49.06.98.06,1.52v19.22h5.68v2.44h-14.45v-2.44h5.56v-18.36c0-5.25-2.12-7.63-6.19-7.63-3.61,0-6.54,1.95-10.15,5.19v95.66h5.56v2.44h-14.45v-2.44Z"/>
</svg>